<svg xmlns="http://www.w3.org/2000/svg" version="1.1" width="600px" height="600px" xlink="http://www.w3.org/1999/xlink" style="overflow:hidden!important;"><g id="svga-group-wrapper" transform="scale(3 3)"><g id="svga-group-backs-single"></g><g id="svga-group-subwrapper" ><g id="svga-group-hair-back" ><path id="SvgjsPath3088" d="M151.582 41.064l-99.508-5.662c0 0-25.074 182.88-25.074 188.596 0 0 100.899 0.72 143.907 0C170.103 216.079 151.582 41.064 151.582 41.064z" fill="#0c080c" stroke-width="none" opacity="1"></path></g><g id="svga-group-humanbody-single"><path id="SvgjsPath2761" d="M190.858 199.866c-6.008-10.158-13.474-11.973-19.628-13.936 -6.323-2.016-19.346-3.178-26.449-4.6 -6.86-1.373-23.153-5.789-23.339-13.488 -0.192-8.066 4.291-40.09 4.291-40.09H74.005c0 0 4.487 32.023 4.294 40.09 -0.184 7.699-16.48 12.115-23.341 13.488 -7.104 1.422-20.125 2.584-26.448 4.6 -6.156 1.963-13.624 3.777-19.632 13.936 -3.644 6.16-6.008 16.133-6.008 27.133h194C196.869 215.999 194.509 206.026 190.858 199.866z" fill="#93614a" stroke-width="none" opacity="1" stroke="none"></path><path id="SvgjsPath2762" d="M121.442 167.843c2.495 10.929 18.165 13.698 26.293 15.325 21.909 4.379 33.772 5.134 42.297 19.539 2.903 4.916 5.459 15.864 5.962 24.153 1.835 0.291 0.531-17.432-5.136-26.994 -9.742-16.472-29.089-15.135-46.077-18.535C137.921 179.958 121.628 175.542 121.442 167.843L121.442 167.843zM78.558 167.843c-0.186 7.699-16.479 12.115-23.339 13.488 -16.988 3.4-36.335 2.063-46.077 18.535 -5.667 9.563-6.971 27.285-5.136 26.994 0.503-8.289 3.059-19.237 5.962-24.153 8.524-14.405 20.388-15.16 42.297-19.539C60.393 181.541 76.063 178.771 78.558 167.843L78.558 167.843z" fill="#a27662" stroke-width="none" opacity="1" stroke="none"></path><path id="SvgjsPath2763" d="M51.206 189.513c0 0 28.641 0.299 33.473 1.885 2.314 0.758 8.372 5.633 8.372 5.633s-6.556-3.17-8.658-3.758C79.51 191.909 51.206 189.513 51.206 189.513zM99.795 199.999c2.053-0.041 7.887-3.799 7.887-3.799s-5.574 2.059-7.342 2.16c-1.491 0.086-6.366-1.238-6.366-1.238S98.112 200.032 99.795 199.999zM117.008 192.757c6.75-1.818 29.786-3.23 29.786-3.23s-23.791-0.516-30.51 1.725c-2.252 0.752-7.562 5.16-7.562 5.16S114.786 193.354 117.008 192.757z" fill="#844e35" stroke-width="none" opacity="1" stroke="none"></path><path id="SvgjsPath2764" d="M190.858 199.866c-9.741-16.471-29.122-15.142-46.077-18.535 -6.86-1.373-23.153-5.789-23.339-13.488 -0.192-8.066 4.291-40.09 4.291-40.09H74.005c0 0 4.487 32.023 4.294 40.09 -0.184 7.699-16.48 12.115-23.341 13.488 -7.104 1.422-20.125 2.584-26.448 4.6 -6.156 1.963-13.624 3.777-19.632 13.936 -3.644 6.16-6.008 16.133-6.008 27.133h194C196.869 215.999 194.509 206.026 190.858 199.866z" fill="none" stroke="#652e15" stroke-width="1.5" opacity="1"></path></g><g id="svga-group-chinshadow-single"><path id="SvgjsPath3516" d="M100.021 171.27c5.607-0.009 13.53-3.627 20.967-8.478 0.485-6.84 1.756-17.341 2.758-25.098 -13.972-1.825-33.828-1.785-47.741 0.101 0.995 7.702 2.249 18.065 2.739 24.877C86.278 167.593 94.344 171.279 100.021 171.27z" fill="url(#SvgjsLinearGradient3517)" opacity="1"></path></g><g id="svga-group-clothes-single" ><path id="SvgjsPath3115" d="M30.001 232.556c2.241-18.245 0.078-43.233-0.092-47.774 1.455-3.036 4.17-3.09 7.037-1.8 0.922-1.402 2.811-2.107 5.343-1.056v-0.15c1.067-0.882 1.788-2.667 4.068-1.426 1.595-1.728 3.824-1.542 5.95-0.554h0.071l0.076-0.058c0.684-1.977 2.147-2.091 4.035-1.15v-0.162c0.622-1.629 2.972-1.361 4.711-0.952 12.235 9.88 29.726 21.169 42.436 28.4 0.077-0.057 18.103-13.333 18.103-13.429 1.525-0.984 11.141-7.709 18.003-13.162 1.783-0.63 4.413-0.996 6.045-0.132 1-0.253 1.905-0.696 3.902 1.301l0.049 0.098c1.931-0.992 5.176-1.134 6.063 1.528 1-0.173 3.564-1.396 4.444 0.437l0.142 0.097c1.796-0.519 3.157-0.086 3.735 0.5l0.054-0.06c1.837-0.689 4.266-0.898 5.134 0.906 0.349 0.77 0.219 1.181 0.18 2.072 -4.185 26.167-3.409 37.476-1.301 46.729C145.421 233.437 31.001 232.556 30.001 232.556z" fill="#335529" stroke-width="none" opacity="1" stroke="none"></path><path id="SvgjsPath3116" d="M147.809 184.721c-1.866-2.231-3.948-1.846-4.735-1.369 -0.92-2.239-5.886-1.676-7.239-0.997 1.35-1.022 2.674-2.045 3.908-3.025 1.783-0.63 4.413-0.996 6.045-0.132 1-0.253 1.905-0.696 3.902 1.301l0.049 0.098c1.931-0.992 5.176-1.134 6.063 1.528 1-0.173 3.564-1.396 4.444 0.437l0.142 0.097c1.796-0.519 3.157-0.086 3.735 0.5l0.054-0.06c1.837-0.689 4.266-0.898 5.134 0.906 0.349 0.77 0.219 1.181 0.18 2.072 -0.081 1.594-0.201 2.068-0.261 3.546 -0.736-1.415-4.748-2.231-5.492-1.172 -0.625-1.487-3.636-1.367-4.637-0.771 -1.363-1.56-2.625-1.92-4.781-1.184C153.085 184.317 150.813 183.79 147.809 184.721zM37.85 187.905c0.559-2.065 4.329-2.205 6.192-2.293 0.222-0.29 1.76-2.22 4.603-1.372 1.635-2.172 5.477-1.409 6.157-1.299 0.359-0.053 1.34-1.833 4.544-0.923 1.073-1.914 4.254-1.537 5.117-1.384 -0.784-0.612-2.516-2.558-3.263-3.161 -1.739-0.409-4.089-0.677-4.711 0.952v0.162c-1.888-0.94-3.351-0.826-4.035 1.15l-0.076 0.058h-0.071c-2.126-0.988-4.355-1.174-5.95 0.554 -2.28-1.241-3.001 0.544-4.068 1.426v0.15c-2.532-1.052-4.421-0.347-5.343 1.056 -2.867-1.29-5.582-1.236-7.037 1.8 0.028 0.741 0.061 2.708 0.078 4.421C32.901 186.848 36.077 187.322 37.85 187.905z" fill="#44643a" stroke-width="none" opacity="1" stroke="none"></path><path id="SvgjsPath3117" d="M36.864 183.316c0.907 5.089 4.544 15.515 6.532 20.684C41.042 199.828 36.056 190.003 36.864 183.316 37.239 183.412 36.478 183.164 36.864 183.316zM42.081 182.099C43.768 189.9 47.522 199.561 59 212c-7.562-11.301-14.7-22.954-16.631-29.953C41.59 181.772 42.717 182.067 42.081 182.099zM60.829 201.982c-5.661-6.409-10.564-13.554-14.875-21.828C47.293 184.422 53.033 196.439 60.829 201.982zM60.829 201.982c0.711 0.685 1.432 1.36 2.171 2.018C62.255 203.338 61.546 202.658 60.829 201.982zM93.003 201.242c-9.773-6.18-24.836-17.555-32.916-24.079C63.499 182.655 80.449 196.903 93.003 201.242zM146.209 179.346c-8.199 12.52-18.991 19.974-30.811 28.156 16.005-7.792 24.545-15.85 30.554-28.205C145.479 179.051 146.566 179.333 146.209 179.346zM149.737 180.55l-0.049-0.098c-0.067-0.067-0.129-0.121-0.193-0.184 -4.209 10.353-11.793 19.05-19.876 28.134C139.203 200.562 145.786 192.152 149.737 180.55 148.956 180.625 150.366 180.227 149.737 180.55zM155.801 182.078c-0.038-0.115-0.093-0.211-0.141-0.316 -5.021 13.434-13.518 25.679-20.841 37.578C146.282 208.985 154.089 192.22 155.801 182.078 155.036 182.212 156.238 182.003 155.801 182.078zM160.387 182.611l-0.142-0.097c-0.164-0.343 0.261 0.156 0 0 -3.356 8.513-5.705 16.162-10.709 23.138C156.456 198.356 159.564 190.497 160.387 182.611 159.972 182.629 160.873 182.471 160.387 182.611zM164.122 183.111c-0.182 0.056 0.227-0.124 0.054-0.06L164.122 183.111c-0.32-0.325 0.567 0.094-0.175-0.001 -1.693 11.853-3.762 22.942-7.411 33.89C161.633 205.609 166.119 195.337 164.122 183.111zM140.204 179.196c-0.92 0.099 0.294-0.181-0.463 0.087 -6.862 5.453-16.478 12.178-18.003 13.162 0 0.052-6.032 6.635-10.884 10.22C124.619 193.569 132.183 189.37 140.204 179.196zM56.124 178.753c-0.943-0.664 8.542 14.193 27.968 22.305C72.525 194.913 62.603 187.144 56.124 178.753zM52.454 179.738l-0.076 0.058h-0.071c-1.379 0.36 11.743 19.392 22.617 27.106C66.155 198.831 52.454 179.738 52.454 179.738z" fill="#24461b" stroke-width="none" opacity="1" stroke="none"></path><path id="SvgjsPath3118" d="M169.659 184.745c-0.479-2.571-3.071-2.677-5.51-1.79 -0.011-0.01-0.021 0-0.03 0.011 -0.521-0.531-1.963-0.97-3.76-0.45 -0.813-1.589-2.798-1.15-4.49-0.55 -0.855-2.565-4.369-2.609-6.08-1.555 -0.01-0.02-0.02-0.029-0.03-0.029 -1.962-1.964-2.96-1.581-3.96-1.337 -1.657-0.863-4.365-0.483-6.12 0.16 -5.478 4.403-12.335 9.208-18.04 13.24 0 0.021-8.18 6.05-18.01 13.31 -14.833-8.559-30.813-19.031-42.407-28.379 -1.858-0.413-4.176-0.703-4.823 1.029 0 0-0.01 0.01-0.01 0.021 -1.85-0.927-3.354-0.672-4.03 1.279 -0.01 0-0.01 0-0.01 0 -2.16-1.003-4.326-1.191-6.01 0.521 -0.706-0.388-1.449-0.553-2.19-0.23 -0.964 0.422-1.96 1.622-1.96 1.78 -2.406-1.004-4.412-0.232-5.28 1.08 -2.931-1.329-5.996-1.086-7.1 1.93 0.039 1.009 2.635 24.365 0.08 47.87 0 0 138.4 0.2 138.41 0.2C166.202 227.698 166.187 211.336 169.659 184.745zM30.619 232.365c4.04-16.406 0.239-36.055-0.57-46.6 1.057-2.96 4.225-3.26 6.62-2.32 0.648 4.702 1.932 9.223 4.52 14.28 -0.645-1.521-3.93-13.802-3.93-14.23 1.482-1.62 3.466-1.859 5.11-1.149 2.45 8.3 9.74 20.04 11.8 22.189 -1.262-1.442-11.239-21.45-11.62-22.45 1.039-1.396 2.211-2.01 3.79-1.31 4.081 8.162 9.302 14.953 10.64 16.31 0 0-10.229-16.459-10.23-16.46 1.268-1.227 3.667-0.994 5.45-0.399 0.01 0 0.02 0 0.02 0 25.958 33.4 6.071 5.747 0.39-0.24 0.01-0.04 0.03-0.09 0.05-0.12 1.03-2.18 2.77-1.11 3.95-0.36 5.05 7.28 18.47 16.591 19.69 16.99 -0.77-0.25-13.74-10.62-19.23-17.24 0.096-1 0.355-1.91 3.17-1.619 13.22 12.06 29.62 22.33 42.11 29.069 -12.8 9.45-27.84 20.59-31.25 23.25 1-0.574 50.413-33.261 69.74-50.79 2.095-0.292 3.832-0.058 4.74 0.28 0.01 0.01 0.03 0.01 0.04 0.021 -7.25 10.88-26.72 26.119-30.26 27.76 5.574-2.279 24.845-15.87 30.85-27.88 0.021 0 0.04-0.011 0.05 0 1.029-0.15 2.551 0.856 3.25 1.556 -0.01 0.01-0.02 0.03-0.029 0.05 -3.025 6.143-13.229 20.622-18.07 25.024 7.983-7.262 14.594-15.247 18.55-25.234 2.247-0.725 4.396-0.448 5.601 1.534 -2.163 5.533-0.775 4.988-10.051 19.35 -8.819 13.65-5.71 11.521-12.899 20.511 16.166-20.195 20.67-31.158 23.13-39.521 0-0.01 0.01-0.03 0.01-0.05 1.907-0.574 3.346-0.975 4.15 0.479 0 0 0.01 0 0 0.011 -2.65 7.569-6.2 15.14-7.2 17.229 6.371-9.852 5.551-9.614 7.479-17.33 1.772-0.517 3.196-0.165 3.74 0.29 -1.047 8.581-3.293 18.87-5.319 26.9 0.51-2 5.739-10.38 5.55-26.71 0.01-0.01 0.01-0.01 0-0.021 2.058-0.403 4.226-0.563 5.13 1.41 -2.068 16.94-6.141 27.786-1.41 47.641C128.171 231.516 79.125 231.362 30.619 232.365z" fill="#0e2707" stroke-width="none" opacity="1" stroke="none"></path></g><g id="svga-group-head" ><g id="svga-group-ears-left" style="display:none;"><path id="SvgjsPath3509" d="M47.001 83.974c-1.376-2.313-5.638-7.997-9.98-6.603 -2.749 0.882-3.293 3.765-3.735 6.311 -0.588 3.386 0.471 10.083 1.389 12.503 0.881 2.325 3.533 6.816 5.264 8.527 2.13 2.1 4.775 8.793 5.194 9.487 0.66 1.097 1.536 2.745 4.122 2.538 2.853-0.229 4.584-1.742 5.856-1.999C58.253 114.109 50.582 89.995 47.001 83.974z" fill="#93614a" stroke="#652e15" stroke-width="1.5" opacity="1"></path><path id="SvgjsPath3510" d="M44.197 97.997c-0.132-0.548 0.007-1.47 0.142-2.362 0.124-0.812 0.24-1.579 0.169-2.121 -0.267-2.032-1.773-5.893-2.757-7.985 -1.132-2.407-2.963-5.439-5.262-6.221 -0.95-0.324-1.575 0.063-1.938 0.456 -0.266 0.289-0.325 0.627-0.238 0.667 0.086 0.04 0.285-0.24 0.572-0.504 0.235-0.216 0.579-0.402 1.051-0.363 -0.19 1.011-1.167 6.49-0.744 10.225 0.333 2.938 1.593 5.131 1.79 5.46 0.029 0.346 0.077 0.685 0.148 1.014 0.929 4.287 4.971 9.163 6.378 10.758 0.259 0.295 0.531 0.47 0.598 0.398 0.066-0.072-0.094-0.364-0.353-0.66 -1.388-1.585-5.391-6.442-6.289-10.579 -0.952-4.389 2.318-10.896 3.048-12.272 0.371 0.646 0.687 1.267 0.93 1.785 0.19 0.406 0.402 0.881 0.619 1.395 -0.429 0.718-3.434 5.958-2.338 10.153 0.406 1.546 2.235 3.54 3.447 4.086 0.667 0.301 0.919 0.75 1.209 1.271 0.336 0.604 0.718 1.288 1.828 1.784 0.225 0.102 0.429 0.142 0.61 0.142 0.313 0 0.551-0.126 0.725-0.276 0.018 0.266 0.017 0.604 0.009 0.917 -0.012 0.404 0.042 0.737 0.137 0.745 0.094 0.008 0.196-0.313 0.207-0.717 0.016-0.496 0.013-1.11-0.072-1.403 -0.248-0.865-1.008-1.841-1.813-2.875C45.221 99.896 44.403 98.844 44.197 97.997zM36.95 94.196c-2.177-6.731 0.656-12.54 1.144-13.464 0.85 0.775 1.6 1.811 2.21 2.824C39.86 84.365 37.041 89.669 36.95 94.196zM46.341 104.042c-1.004-0.447-1.339-1.051-1.666-1.633 -0.293-0.527-0.598-1.072-1.369-1.42 -0.168-0.075-0.352-0.191-0.542-0.323 -2.486-5.906 0.272-8.488 0.963-9.017 0.211 0.722 0.369 1.384 0.439 1.915 0.063 0.488-0.052 1.263-0.167 2.012 -0.142 0.929-0.286 1.89-0.137 2.512 0.226 0.926 1.069 2.009 1.884 3.057 0.723 0.929 1.466 1.888 1.721 2.67C47.359 103.972 47.017 104.345 46.341 104.042z" fill="#652e15" stroke-width="none" opacity="1"></path></g><g id="svga-group-ears-right" style="display:none;"><path id="SvgjsPath3511" d="M152.736 83.974c1.377-2.313 5.639-7.997 9.98-6.603 2.75 0.882 3.293 3.765 3.736 6.311 0.588 3.386-0.471 10.083-1.389 12.503 -0.881 2.325-3.533 6.816-5.266 8.527 -2.129 2.1-4.775 8.793-5.193 9.487 -0.658 1.097-1.535 2.745-4.121 2.538 -2.854-0.229-4.584-1.742-5.857-1.999C141.484 114.109 149.156 89.995 152.736 83.974z" fill="#93614a" stroke="#652e15" stroke-width="1.5" opacity="1"></path><path id="SvgjsPath3512" d="M153.727 100.913c-0.805 1.033-1.564 2.009-1.813 2.875 -0.086 0.293-0.088 0.907-0.072 1.403 0.012 0.404 0.113 0.725 0.207 0.717s0.148-0.341 0.137-0.745c-0.008-0.313-0.008-0.651 0.01-0.917 0.174 0.15 0.412 0.276 0.725 0.276 0.182 0 0.385-0.04 0.609-0.142 1.109-0.496 1.492-1.18 1.828-1.784 0.289-0.52 0.543-0.969 1.209-1.271 1.213-0.546 3.041-2.54 3.447-4.086 1.096-4.194-1.908-9.435-2.338-10.153 0.217-0.513 0.43-0.988 0.619-1.395 0.244-0.518 0.559-1.139 0.93-1.785 0.73 1.377 4 7.883 3.049 12.272 -0.896 4.137-4.9 8.994-6.289 10.579 -0.258 0.296-0.418 0.588-0.352 0.66 0.066 0.071 0.338-0.104 0.598-0.398 1.406-1.596 5.449-6.471 6.379-10.758 0.07-0.329 0.117-0.668 0.146-1.014 0.197-0.329 1.459-2.523 1.791-5.46 0.422-3.735-0.555-9.214-0.744-10.225 0.473-0.039 0.814 0.146 1.051 0.363 0.287 0.264 0.486 0.544 0.572 0.504s0.027-0.378-0.238-0.667c-0.363-0.393-0.988-0.779-1.938-0.456 -2.299 0.782-4.131 3.814-5.262 6.221 -0.984 2.093-2.49 5.953-2.758 7.985 -0.072 0.542 0.045 1.309 0.17 2.121 0.135 0.892 0.273 1.814 0.141 2.362C155.336 98.844 154.518 99.896 153.727 100.913zM159.434 83.555c0.611-1.013 1.361-2.049 2.211-2.824 0.488 0.925 3.32 6.733 1.145 13.464C162.697 89.669 159.879 84.365 159.434 83.555zM152.27 103.816c0.254-0.782 0.998-1.741 1.721-2.67 0.816-1.048 1.658-2.131 1.885-3.057 0.148-0.622 0.004-1.583-0.137-2.512 -0.115-0.749-0.23-1.524-0.166-2.012 0.068-0.531 0.227-1.193 0.438-1.915 0.691 0.529 3.449 3.111 0.965 9.017 -0.191 0.132-0.375 0.248-0.543 0.323 -0.771 0.348-1.074 0.893-1.369 1.42 -0.326 0.582-0.662 1.186-1.666 1.633C152.721 104.345 152.379 103.972 152.27 103.816z" fill="#652e15" stroke-width="none" opacity="1"></path></g><g id="svga-group-faceshape-wrap" ><g id="svga-group-faceshape-single" ><path id="SvgjsPath3513" d="M158.785 76.762l-0.005 0c-0.012 0.053-10.717 44.373-18.919 56.95 -6.452 9.895-28.166 25.54-39.84 25.558 -11.671 0.02-33.437-15.559-39.918-25.433C51.861 121.285 41.017 77 41.005 76.946h-0.001c-1.298-4.911-1.994-10.066-2.002-15.382C38.949 28.09 66.155 0.919 99.773 0.867c33.621-0.052 60.913 27.033 60.964 60.507C160.746 66.69 160.068 71.846 158.785 76.762z" fill="#93614a" stroke-width="none" opacity="1"></path><path id="SvgjsPath3514" d="M125.766 6.622c19.104 10.248 32.075 30.355 32.039 53.476 -0.009 5.316-0.704 10.471-2.003 15.382h-0.001c-0.012 0.053-10.856 44.339-19.099 56.891 -5.946 9.061-24.555 25.121-36.833 25.121 -12.279 0-30.886-16.061-36.833-25.121 -8.242-12.552-19.086-56.837-19.098-56.891h-0.001c-1.298-4.911-1.994-10.066-2.002-15.382C41.898 36.977 54.87 16.87 73.972 6.622 53.277 16.324 38.963 37.28 39.001 61.564c0.008 5.316 0.704 10.471 2.002 15.382h0.001c0.012 0.053 10.856 44.339 19.098 56.891 4.416 6.728 15.922 16.095 26.5 21.382 -0.529-0.226-1.062-0.466-1.599-0.717 5.408 2.875 10.664 4.763 14.713 4.768 0.049 0 0.103-0.005 0.152-0.005s0.103 0.005 0.152 0.005c4.049-0.005 9.305-1.893 14.714-4.768 -0.538 0.253-1.071 0.491-1.601 0.718 10.577-5.287 22.085-14.655 26.501-21.383 8.242-12.552 19.087-56.837 19.098-56.891h0.002c1.298-4.911 1.994-10.066 2.002-15.382C160.775 37.28 146.462 16.324 125.766 6.622z" fill="#8b573f" stroke-width="none" opacity="1"></path><path id="SvgjsPath3515" d="M158.785 76.762l-0.005 0c-0.012 0.053-10.717 44.373-18.919 56.95 -6.452 9.895-28.166 25.54-39.84 25.558 -11.671 0.02-33.437-15.559-39.918-25.433C51.861 121.285 41.017 77 41.005 76.946h-0.001c-1.298-4.911-1.994-10.066-2.002-15.382C38.949 28.09 66.155 0.919 99.773 0.867c33.621-0.052 60.913 27.033 60.964 60.507C160.746 66.69 160.068 71.846 158.785 76.762z" fill="none" stroke="#652e15" stroke-width="1.5" opacity="1"></path></g></g><g id="svga-group-mouth-single" ><path id="SvgjsPath3497" d="M99.867 141.087c-4.159 0-7.258-4.297-7.258-4.297 7.261 3.32 14.915 0 14.915 0S103.516 141.087 99.867 141.087z" fill="url(#SvgjsLinearGradient3498)" opacity="1"></path><path id="SvgjsPath3501" d="M112.127 131.943c0 0.625-7.773 3.456-12.258 3.575 -4.18 0.112-12.333-2.682-12.333-3.575 0-0.892 6.441-1.558 12.729-1.558C106.555 130.386 112.127 131.052 112.127 131.943z" fill="#ffffff" stroke-width="none" opacity="1"></path><path id="SvgjsPath3502" d="M95.441 127.853c0.99-0.131 2.728 0.908 4.824 0.909 1.541 0.002 3.426-1.067 4.612-0.909 2.529 0.341 3.857 1.882 10.491 2.47 0 0-3.22 1.083-4.075 1.15 -2.72 0.216-7.215-0.169-11.287-0.181 -4.556-0.02-8.941 0.43-11.697 0.301 -0.994-0.051-3.941-1.137-3.941-1.137C89.901 130.196 92.547 128.235 95.441 127.853zM84.369 130.818c0 0 4.514 3.538 6.253 4.76 2.007 1.411 5.029 3.623 9.474 3.557 3.563-0.058 6.641-1.816 8.477-2.986 1.978-1.259 6.796-5.463 6.796-5.463 -2.77 0.633-2.77 0.633-4.075 1.149 -2.741 1.084-7.477 2.722-11.173 2.722 -4.563 0-8.936-1.639-11.811-2.603C86.315 131.286 84.369 130.818 84.369 130.818z" fill="#a96a47" stroke="#9a5731" stroke-width="0.75" opacity="1"></path><path id="SvgjsPath3503" d="M115.592 130.572c-0.458 0.663-2.14 0.715-2.888 0.977 -1.098 0.383-2.162 0.856-3.259 1.245 -2.693 0.954-5.51 1.792-8.375 1.98 -5.336 0.351-10.599-1.808-15.596-3.41 -0.424-0.136-0.994-0.175-1.359-0.449 -0.326-0.244-0.015-0.768 0.336-0.701 1.051 0.199 2.092 0.731 3.141 0.994 1.224 0.308 2.583 0.16 3.832 0.113 1.592-0.059 3.184-0.146 4.777-0.207 2.927-0.109 5.842-0.053 8.768 0.059 2.621 0.101 5.366 0.402 7.915-0.332 0.688-0.199 1.379-0.399 2.047-0.656C115.179 130.09 115.94 130.07 115.592 130.572 115.415 130.828 115.632 130.515 115.592 130.572zM108.39 131.773c-3.415 0.013-6.822-0.286-10.24-0.217 -1.874 0.038-3.745 0.139-5.617 0.219 -0.566 0.024-1.625-0.143-2.11 0.204 -0.466 0.334 1.182 0.807 1.325 0.852 3.306 1.039 6.829 1.78 10.304 1.346 1.704-0.214 3.382-0.632 5.023-1.13 0.64-0.195 1.439-0.341 1.987-0.743C109.635 131.883 108.656 131.773 108.39 131.773 107.333 131.777 109.492 131.771 108.39 131.773z" fill="#7b350f" stroke-width="none" opacity="1"></path><path id="SvgjsPath3504" d="M99.901 138.136c-4.165 0-7.465-2.404-10.634-4.801 7.714 2.61 14.222 2.572 21.819-0.346C107.874 135.609 104.215 138.095 99.901 138.136zM93.601 130.478c5.567-0.262 11.102 0.228 16.657 0.047 -1.847-0.453-3.623-1.426-5.512-1.681 -1.452-0.142-2.984 0.918-4.481 0.918 -1.633-0.001-3.113-0.918-4.692-0.918 -2.024 0.27-3.923 1.229-5.881 1.771C90.996 130.593 92.299 130.547 93.601 130.478 95.469 130.39 92.18 130.543 93.601 130.478z" fill="#b87f60" stroke-width="none" opacity="1"></path><path id="SvgjsPath3505" d="M95.134 136.031c1.596 0.319 3.265 0.525 4.987 0.525 1.453 0 3.029-0.222 4.598-0.563 -1.384 0.624-2.973 1.132-4.654 1.141C98.283 137.145 96.471 136.67 95.134 136.031z" fill="#c8977c" stroke-width="none" opacity="1"></path></g><g id="svga-group-eyes-left" ><g id="svga-group-eyesback-left"><path id="SvgjsPath3580" d="M60.986 83.262c0.405-0.904 2.145-2.183 5.923-3.078 1.724-0.409 4.107-0.321 6.578-0.143 5.98 0.429 11.736 4.248 13.547 7.316 0.004 0 0.008 0 0.012 0 0.351 0.611 0.565 1.192 0.585 1.702 0.041 1.082-0.444 1.94-1.316 2.623 0.001-0.001 0.002-0.002 0.003-0.004 -2.256 1.847-8.541 2.244-12.319 2.213 -7.52-0.063-9.723-2.969-9.723-2.969 -0.938-1.243-2.008-2.639-2.695-4.086 0.018 0.023 0.028 0.036 0.028 0.036 -0.715-1.591-0.636-2.143-0.719-3.156C60.904 83.566 60.938 83.414 60.986 83.262z" fill="url(#SvgjsRadialGradient3581)" opacity="1"></path></g><g id="svga-group-eyesiriswrapper-left" transform="translate(-0.75 0.25)"><g id="svga-group-eyesiriscontrol-left" ><g id="svga-group-eyesiris-left" ><path id="SvgjsPath3290" d="M83.5 87c0 4.694-3.806 8.5-8.499 8.5 -4.694 0-8.501-3.806-8.501-8.5l0 0c0-4.694 3.807-8.5 8.501-8.5C79.694 78.499 83.5 82.305 83.5 87L83.5 87z" fill="#2a2726" stroke-width="none" opacity="1" stroke="none"></path><path id="SvgjsPath3291" d="M74.048 78.595c-0.033 0.004-0.066 0.008-0.101 0.012 0.041 0.191 0.081 0.384 0.12 0.575C74.06 78.987 74.055 78.789 74.048 78.595zM74.066 79.18c0.099 2.793 0.262 5.282 0.732 6.183C75.047 84.377 74.625 81.92 74.066 79.18zM74.8 85.365c-0.061 0.236-0.153 0.397-0.294 0.452 -0.142 0.053-0.319-0.008-0.521-0.146 0.058 0.236 0.052 0.422-0.051 0.537 -0.102 0.114-0.285 0.142-0.527 0.11 0.16 0.184 0.242 0.353 0.206 0.5 -0.039 0.148-0.189 0.258-0.415 0.343 0.225 0.088 0.376 0.199 0.411 0.347 0.036 0.148-0.046 0.315-0.205 0.498 0.241-0.029 0.426 0.001 0.525 0.115 0.101 0.114 0.106 0.301 0.05 0.537 0.199-0.137 0.376-0.197 0.518-0.142 0.143 0.053 0.234 0.216 0.291 0.454 0.114-0.215 0.243-0.353 0.396-0.368 0.148-0.02 0.307 0.084 0.466 0.267 0.002-0.244 0.053-0.423 0.181-0.51 0.124-0.086 0.311-0.069 0.537 0.018 -0.11-0.216-0.148-0.398-0.078-0.534 0.071-0.135 0.245-0.207 0.487-0.235 -0.199-0.14-0.321-0.283-0.318-0.436 -0.001-0.153 0.119-0.296 0.321-0.434 -0.241-0.03-0.412-0.103-0.484-0.237 -0.07-0.135-0.031-0.319 0.081-0.535 -0.229 0.085-0.413 0.102-0.538 0.016 -0.126-0.086-0.177-0.267-0.178-0.51 -0.158 0.182-0.316 0.282-0.468 0.262C75.041 85.714 74.911 85.58 74.8 85.365zM75.66 85.471c0.679-0.758 1.446-3.13 2.224-5.813C76.674 82.174 75.662 84.453 75.66 85.471zM77.883 79.657c0.085-0.172 0.172-0.348 0.253-0.524 -0.03-0.011-0.06-0.024-0.09-0.037C77.992 79.284 77.938 79.472 77.883 79.657zM76.377 85.965c0.953-0.357 2.736-2.101 4.671-4.115C78.808 83.517 76.851 85.065 76.377 85.965zM81.048 81.851c0.142-0.106 0.287-0.213 0.433-0.318 -0.021-0.025-0.043-0.047-0.06-0.07C81.297 81.59 81.174 81.722 81.048 81.851zM76.777 86.738c1.01 0.125 3.399-0.591 6.052-1.475C80.068 85.698 77.617 86.159 76.777 86.738zM82.829 85.263c0.156-0.022 0.318-0.048 0.478-0.073 -0.007-0.026-0.013-0.054-0.02-0.081C83.135 85.16 82.979 85.212 82.829 85.263zM76.775 87.606c0.836 0.583 3.284 1.057 6.038 1.505C80.171 88.214 77.786 87.484 76.775 87.606zM82.813 89.111c0.135 0.047 0.271 0.095 0.404 0.138 0.007-0.024 0.013-0.047 0.018-0.071C83.098 89.158 82.954 89.135 82.813 89.111zM76.367 88.375c0.471 0.902 2.42 2.462 4.649 4.142C79.092 90.492 77.32 88.737 76.367 88.375zM81.018 92.514c0.083 0.087 0.17 0.179 0.253 0.268 0.014-0.017 0.027-0.031 0.043-0.046C81.215 92.662 81.113 92.587 81.018 92.514zM75.652 88.867c-0.004 1.019 0.995 3.302 2.191 5.827C77.079 92.006 76.327 89.628 75.652 88.867zM77.844 94.694c0.03 0.106 0.062 0.215 0.09 0.324 0.021-0.008 0.036-0.015 0.055-0.02C77.941 94.896 77.892 94.793 77.844 94.694zM74.788 88.968c-0.476 0.902-0.653 3.386-0.768 6.178C74.594 92.413 75.031 89.958 74.788 88.968zM74.021 95.146c-0.023 0.106-0.044 0.214-0.066 0.323 0.02 0.004 0.035 0.005 0.055 0.007C74.013 95.368 74.018 95.254 74.021 95.146zM73.979 88.657c-0.844 0.576-2.154 2.697-3.553 5.114C72.204 91.617 73.733 89.645 73.979 88.657zM70.427 93.771c-0.074 0.09-0.152 0.185-0.229 0.274 0.018 0.012 0.034 0.02 0.053 0.034C70.309 93.976 70.369 93.873 70.427 93.771zM73.405 88.006c-1.015 0.119-3.16 1.385-5.522 2.875C70.46 89.801 72.726 88.768 73.405 88.006zM67.883 90.884c-0.122 0.051-0.247 0.102-0.372 0.156 0.009 0.019 0.021 0.038 0.033 0.057C67.658 91.027 67.771 90.954 67.883 90.884zM73.198 87.161c-0.951-0.365-3.441-0.238-6.227-0.016C69.755 87.383 72.244 87.521 73.198 87.161zM66.972 87.145c-0.151-0.014-0.308-0.028-0.457-0.041 -0.001 0.027-0.003 0.053-0.001 0.08C66.669 87.169 66.822 87.156 66.972 87.145zM73.407 86.318c-0.67-0.763-2.932-1.809-5.499-2.905C70.259 84.915 72.397 86.196 73.407 86.318zM67.908 83.413c-0.147-0.095-0.297-0.189-0.446-0.285 -0.013 0.026-0.026 0.053-0.041 0.078C67.585 83.276 67.75 83.344 67.908 83.413zM73.985 85.67c-0.239-0.989-1.758-2.967-3.521-5.132C71.849 82.963 73.147 85.09 73.985 85.67zM70.465 80.538c-0.095-0.163-0.188-0.329-0.281-0.494 -0.026 0.018-0.055 0.037-0.079 0.054C70.224 80.245 70.348 80.393 70.465 80.538z" fill="url(#SvgjsRadialGradient3292)" opacity="1"></path><path id="SvgjsPath3295" d="M76.255 78.622c-0.034-0.004-0.066-0.01-0.1-0.014 -0.011 0.196-0.022 0.393-0.034 0.586C76.164 79.004 76.211 78.812 76.255 78.622zM76.12 79.193c-0.627 2.724-1.114 5.17-0.892 6.162C75.724 84.467 75.95 81.984 76.12 79.193zM75.229 85.356c-0.119 0.212-0.25 0.344-0.401 0.36 -0.15 0.014-0.306-0.091-0.464-0.276 -0.006 0.243-0.06 0.421-0.188 0.505 -0.128 0.083-0.313 0.063-0.539-0.03 0.107 0.219 0.143 0.403 0.069 0.536 -0.075 0.133-0.249 0.201-0.489 0.224 0.194 0.144 0.312 0.289 0.308 0.441 -0.003 0.152-0.126 0.292-0.327 0.428 0.24 0.034 0.41 0.111 0.478 0.247 0.067 0.136 0.025 0.318-0.091 0.532 0.229-0.081 0.414-0.093 0.537-0.003 0.123 0.088 0.17 0.27 0.164 0.514 0.166-0.177 0.325-0.278 0.478-0.253 0.148 0.02 0.274 0.16 0.382 0.379 0.064-0.236 0.16-0.396 0.306-0.447 0.143-0.051 0.318 0.014 0.515 0.157 -0.051-0.237-0.041-0.423 0.063-0.536s0.29-0.136 0.532-0.102c-0.157-0.187-0.238-0.356-0.195-0.504 0.039-0.148 0.192-0.255 0.423-0.336 -0.226-0.091-0.372-0.206-0.407-0.354 -0.032-0.149 0.053-0.316 0.218-0.495 -0.243 0.023-0.427-0.009-0.524-0.125 -0.099-0.115-0.102-0.303-0.039-0.538 -0.201 0.134-0.38 0.19-0.521 0.132C75.37 85.756 75.281 85.593 75.229 85.356zM76.033 85.683c0.852-0.558 2.206-2.65 3.652-5.04C77.865 82.76 76.298 84.699 76.033 85.683zM79.685 80.641c0.126-0.145 0.255-0.292 0.38-0.44 -0.027-0.019-0.052-0.04-0.078-0.06C79.886 80.31 79.785 80.477 79.685 80.641zM76.597 86.345c1.013-0.099 3.187-1.322 5.577-2.767C79.578 84.609 77.287 85.598 76.597 86.345zM82.173 83.579c0.165-0.065 0.333-0.131 0.501-0.195 -0.014-0.029-0.029-0.056-0.04-0.083C82.481 83.392 82.328 83.487 82.173 83.579zM76.783 87.194c0.943 0.382 3.437 0.309 6.227 0.142C80.231 87.042 77.745 86.853 76.783 87.194zM83.01 87.336c0.158 0.019 0.32 0.036 0.48 0.053 0.001-0.027 0.002-0.055 0.003-0.083C83.332 87.316 83.168 87.326 83.01 87.336zM76.558 88.033c0.655 0.78 2.898 1.871 5.442 3.017C79.679 89.499 77.565 88.177 76.558 88.033zM82 91.049c0.117 0.08 0.236 0.161 0.354 0.238 0.013-0.021 0.024-0.042 0.035-0.063C82.262 91.168 82.129 91.109 82 91.049zM75.964 88.67c0.221 0.993 1.699 3.004 3.419 5.205C78.048 91.419 76.791 89.266 75.964 88.67zM79.384 93.872c0.059 0.106 0.117 0.217 0.176 0.325 0.018-0.013 0.034-0.023 0.053-0.034C79.536 94.065 79.458 93.967 79.384 93.872zM75.146 88.96c-0.267 0.982 0.107 3.447 0.608 6.195C75.711 92.361 75.601 89.87 75.146 88.96zM75.754 95.155c0.002 0.11 0.004 0.224 0.004 0.337 0.021-0.003 0.038-0.005 0.058-0.005C75.796 95.376 75.775 95.264 75.754 95.155zM74.285 88.834c-0.693 0.748-1.508 3.102-2.341 5.769C73.205 92.11 74.265 89.853 74.285 88.834zM71.944 94.603c-0.05 0.096-0.099 0.195-0.147 0.295 0.017 0.008 0.032 0.013 0.051 0.021C71.879 94.815 71.913 94.707 71.944 94.603zM73.584 88.324c-0.964 0.338-2.779 2.048-4.756 4.021C71.104 90.724 73.091 89.215 73.584 88.324zM68.828 92.345c-0.095 0.067-0.194 0.138-0.29 0.206 0.014 0.016 0.027 0.028 0.041 0.045C68.661 92.511 68.746 92.428 68.828 92.345zM73.197 87.546c-1.01-0.148-3.409 0.521-6.078 1.349C69.889 88.518 72.345 88.106 73.197 87.546zM67.119 88.897c-0.131 0.018-0.265 0.034-0.4 0.054 0.005 0.021 0.011 0.042 0.018 0.063C66.865 88.977 66.993 88.936 67.119 88.897zM73.217 86.677c-0.824-0.599-3.263-1.121-6.01-1.627C69.833 86 72.202 86.777 73.217 86.677zM67.207 85.05c-0.143-0.052-0.29-0.106-0.432-0.158 -0.008 0.026-0.016 0.051-0.021 0.077C66.907 84.995 67.06 85.022 67.207 85.05zM73.637 85.917c-0.45-0.911-2.363-2.506-4.561-4.23C70.959 83.747 72.693 85.538 73.637 85.917zM69.076 81.688c-0.118-0.13-0.236-0.26-0.355-0.391 -0.021 0.022-0.041 0.044-0.061 0.065C68.8 81.471 68.941 81.58 69.076 81.688zM74.363 85.44c0.024-1.017-0.93-3.321-2.073-5.868C72.999 82.273 73.704 84.663 74.363 85.44zM72.29 79.572c-0.049-0.182-0.096-0.366-0.144-0.55 -0.029 0.01-0.062 0.021-0.09 0.032C72.134 79.227 72.214 79.401 72.29 79.572z" fill="url(#SvgjsRadialGradient3296)" opacity="1"></path><path id="SvgjsPath3299" d="M78.334 87c0 1.842-1.492 3.333-3.333 3.333S71.666 88.841 71.666 87c0-1.841 1.494-3.334 3.335-3.334C76.844 83.666 78.334 85.159 78.334 87z" fill="#2a2726" stroke-width="none" opacity="1" stroke="none"></path><path id="SvgjsPath3300" d="M78.334 87c0 1.842-1.492 3.333-3.333 3.333S71.666 88.841 71.666 87c0-1.841 1.494-3.334 3.335-3.334C76.844 83.666 78.334 85.159 78.334 87z" fill="#000000" stroke-width="none" opacity="0.9"></path><path id="SvgjsPath3301" d="M70.35 90.893c0.636-0.427 1.5-0.255 1.927 0.38 0.427 0.637 0.258 1.5-0.379 1.927 -0.638 0.429-1.5 0.258-1.927-0.378C69.544 92.185 69.713 91.32 70.35 90.893L70.35 90.893z" fill="url(#SvgjsLinearGradient3302)" opacity="0.5"></path><path id="SvgjsPath3305" d="M77.635 86.536c-0.356 0.53-1.373 0.468-2.275-0.136 -0.903-0.605-1.346-1.526-0.991-2.055l0.001-0.001c0.354-0.53 1.372-0.469 2.274 0.137 0.903 0.604 1.346 1.524 0.992 2.054C77.635 86.536 77.635 86.536 77.635 86.536z" fill="url(#SvgjsLinearGradient3306)" opacity="0.5"></path><path id="SvgjsPath3309" d="M81.682 85.121c-0.806 1.237-2.884 1.31-4.641 0.166 -1.756-1.145-2.527-3.075-1.722-4.311 0.806-1.235 2.884-1.31 4.641-0.166C81.715 81.956 82.485 83.887 81.682 85.121L81.682 85.121z" fill="url(#SvgjsLinearGradient3310)" opacity="0.75"></path></g></g></g><g id="svga-group-eyesfront-left"><path id="SvgjsPath3605" d="M56 88c0 13.808 8.06 24.999 18 24.999S92 101.808 92 88c0-13.809-8.06-25.001-18-25.001S56 74.191 56 88zM61.58 86.836c0.018 0.023 0.028 0.036 0.028 0.036 -0.715-1.591-0.636-2.143-0.719-3.156 0.015-0.149 0.048-0.301 0.097-0.454 0.405-0.904 2.145-2.183 5.923-3.078 1.724-0.409 4.107-0.321 6.578-0.143 5.98 0.429 11.736 4.248 13.547 7.316 0.004 0 0.008 0 0.012 0 0.351 0.611 0.565 1.192 0.585 1.702 0.041 1.082-0.444 1.94-1.316 2.623 0.001-0.001 0.002-0.002 0.003-0.004 -2.256 1.847-8.541 2.244-12.319 2.213 -7.52-0.063-9.723-2.969-9.723-2.969C63.337 89.679 62.268 88.283 61.58 86.836z" fill="#93614a" stroke-width="none" opacity="1"></path><path id="SvgjsPath3606" d="M57.143 85.081c0.027 8.284 8.484 14.962 18.902 14.919 10.414-0.047 18.836-6.796 18.813-15.08C94.83 76.635 86.371 69.957 75.955 70 65.539 70.047 57.119 76.796 57.143 85.081zM61.608 86.872c-0.715-1.591-0.636-2.143-0.719-3.156 0.015-0.149 0.048-0.301 0.097-0.454 0.405-0.904 2.145-2.183 5.923-3.078 1.724-0.409 4.107-0.321 6.578-0.143 5.98 0.429 11.736 4.248 13.547 7.316 0.004 0 0.008 0 0.012 0 0.351 0.611 0.565 1.192 0.585 1.702 0.041 1.082-0.444 1.94-1.316 2.623 0.001-0.001 0.002-0.002 0.003-0.004 -2.256 1.847-8.541 2.244-12.319 2.213 -7.52-0.063-9.723-2.969-9.723-2.969 -0.938-1.243-2.008-2.639-2.695-4.086C61.598 86.859 61.608 86.872 61.608 86.872z" fill="url(#SvgjsRadialGradient3607)" opacity="1"></path><path id="SvgjsPath3611" d="M64.275 90.922c-0.938-1.243-2.008-2.639-2.695-4.086 0.018 0.023 0.028 0.036 0.028 0.036 -0.715-1.591-0.636-2.143-0.719-3.156 0.015-0.149 0.048-0.301 0.097-0.454 0.405-0.904 2.145-2.183 5.923-3.078 1.724-0.409 4.107-0.321 6.578-0.143 5.98 0.429 11.736 4.248 13.547 7.316 0.004 0 0.008 0 0.012 0 0.351 0.611 0.565 1.192 0.585 1.702 0.041 1.082-0.444 1.94-1.316 2.623 0.001-0.001 0.002-0.002 0.003-0.004 -2.256 1.847-8.541 2.244-12.319 2.213C66.479 93.828 64.275 90.922 64.275 90.922z" fill="url(#SvgjsRadialGradient3612)" opacity="1"></path><path id="SvgjsPath3615" d="M88.256 84.111c-6.821-5.453-10.878-7.558-19.341-7.756 5.832-0.553 11.102 1.27 14.204 3.22C84.57 80.487 87.256 83.237 88.256 84.111z" fill="#652e15" stroke-width="none" opacity="1"></path><path id="SvgjsPath3616" d="M73.998 93.782c3.778 0.031 10.063-0.36 12.319-2.179 -3.322 2.549-8.594 2.881-11.579 2.931 -1.947 0.032-5.992-0.08-7.732-0.953 -0.844-0.423-2.398-1.754-2.73-2.721C64.275 90.86 66.479 93.721 73.998 93.782zM60.151 79.638c-2.637 0.1-4.002-0.024-4.002-0.024 1.445 1.008 1.701 1.207 2.362 2.363 1.348 2.355 3.097 4.895 3.097 4.895 -0.715-1.567-0.636-2.11-0.719-3.107 -0.071-0.864 1.554-2.436 6.02-3.477 1.724-0.402 4.107-0.315 6.578-0.141 5.98 0.423 11.736 4.183 13.547 7.204 0.27-0.012 0.587-0.017 0.693-0.13 0.106-0.114 0.056-0.489-0.021-0.626 -2.488-4.434-11.123-9.373-18.236-9C64.524 77.854 61.992 79.568 60.151 79.638z" fill="#000000" stroke-width="none" opacity="1"></path></g></g><g id="svga-group-eyes-right" ><g id="svga-group-eyesback-right"><path id="SvgjsPath3588" d="M139.014 83.262c-0.405-0.904-2.145-2.183-5.923-3.078 -1.724-0.409-4.107-0.321-6.578-0.143 -5.98 0.429-11.736 4.248-13.547 7.316 -0.004 0-0.008 0-0.012 0 -0.351 0.611-0.565 1.192-0.585 1.702 -0.041 1.082 0.444 1.94 1.316 2.623 -0.001-0.001-0.002-0.002-0.003-0.004 2.256 1.847 8.541 2.244 12.319 2.213 7.52-0.063 9.723-2.969 9.723-2.969 0.938-1.243 2.008-2.639 2.695-4.086 -0.018 0.023-0.028 0.036-0.028 0.036 0.715-1.591 0.636-2.143 0.719-3.156C139.096 83.566 139.063 83.414 139.014 83.262z" fill="url(#SvgjsRadialGradient3589)" opacity="1"></path></g><g id="svga-group-eyesiriswrapper-right" transform="translate(0.75 0.25)"><g id="svga-group-eyesiriscontrol-right" ><g id="svga-group-eyesiris-right" ><path id="SvgjsPath3313" d="M133.5 87c0 4.694-3.806 8.5-8.499 8.5 -4.694 0-8.501-3.806-8.501-8.5l0 0c0-4.694 3.807-8.5 8.501-8.5C129.694 78.499 133.5 82.305 133.5 87L133.5 87z" fill="#2a2726" stroke-width="none" opacity="1" stroke="none"></path><path id="SvgjsPath3314" d="M124.048 78.595c-0.033 0.004-0.066 0.008-0.101 0.012 0.041 0.191 0.081 0.384 0.12 0.575C124.06 78.987 124.055 78.789 124.048 78.595zM124.066 79.18c0.099 2.793 0.262 5.282 0.732 6.183C125.047 84.377 124.625 81.92 124.066 79.18zM124.8 85.365c-0.061 0.236-0.153 0.397-0.294 0.452 -0.142 0.053-0.319-0.008-0.521-0.146 0.058 0.236 0.052 0.422-0.051 0.537 -0.102 0.114-0.285 0.142-0.527 0.11 0.16 0.184 0.242 0.353 0.206 0.5 -0.039 0.148-0.189 0.258-0.415 0.343 0.225 0.088 0.376 0.199 0.411 0.347 0.036 0.148-0.046 0.315-0.205 0.498 0.241-0.029 0.426 0.001 0.525 0.115 0.101 0.114 0.106 0.301 0.05 0.537 0.199-0.137 0.376-0.197 0.518-0.142 0.143 0.053 0.234 0.216 0.291 0.454 0.114-0.215 0.243-0.353 0.396-0.368 0.148-0.02 0.307 0.084 0.466 0.267 0.002-0.244 0.053-0.423 0.181-0.51 0.124-0.086 0.311-0.069 0.537 0.018 -0.11-0.216-0.148-0.398-0.078-0.534 0.071-0.135 0.245-0.207 0.487-0.235 -0.199-0.14-0.321-0.283-0.318-0.436 -0.001-0.153 0.119-0.296 0.321-0.434 -0.241-0.03-0.412-0.103-0.484-0.237 -0.07-0.135-0.031-0.319 0.081-0.535 -0.229 0.085-0.413 0.102-0.538 0.016 -0.126-0.086-0.177-0.267-0.178-0.51 -0.158 0.182-0.316 0.282-0.468 0.262C125.041 85.714 124.911 85.58 124.8 85.365zM125.66 85.471c0.679-0.758 1.446-3.13 2.224-5.813C126.674 82.174 125.662 84.453 125.66 85.471zM127.883 79.657c0.085-0.172 0.172-0.348 0.253-0.524 -0.03-0.011-0.06-0.024-0.09-0.037C127.992 79.284 127.938 79.472 127.883 79.657zM126.377 85.965c0.953-0.357 2.736-2.101 4.671-4.115C128.808 83.517 126.851 85.065 126.377 85.965zM131.048 81.851c0.142-0.106 0.287-0.213 0.433-0.318 -0.021-0.025-0.043-0.047-0.06-0.07C131.297 81.59 131.174 81.722 131.048 81.851zM126.777 86.738c1.01 0.125 3.399-0.591 6.052-1.475C130.068 85.698 127.617 86.159 126.777 86.738zM132.829 85.263c0.156-0.022 0.318-0.048 0.478-0.073 -0.007-0.026-0.013-0.054-0.02-0.081C133.135 85.16 132.979 85.212 132.829 85.263zM126.775 87.606c0.836 0.583 3.284 1.057 6.038 1.505C130.171 88.214 127.786 87.484 126.775 87.606zM132.813 89.111c0.135 0.047 0.271 0.095 0.404 0.138 0.007-0.024 0.013-0.047 0.018-0.071C133.098 89.158 132.954 89.135 132.813 89.111zM126.367 88.375c0.471 0.902 2.42 2.462 4.649 4.142C129.092 90.492 127.32 88.737 126.367 88.375zM131.018 92.514c0.083 0.087 0.17 0.179 0.253 0.268 0.014-0.017 0.027-0.031 0.043-0.046C131.215 92.662 131.113 92.587 131.018 92.514zM125.652 88.867c-0.004 1.019 0.995 3.302 2.191 5.827C127.079 92.006 126.327 89.628 125.652 88.867zM127.844 94.694c0.03 0.106 0.062 0.215 0.09 0.324 0.021-0.008 0.036-0.015 0.055-0.02C127.941 94.896 127.892 94.793 127.844 94.694zM124.788 88.968c-0.476 0.902-0.653 3.386-0.768 6.178C124.594 92.413 125.031 89.958 124.788 88.968zM124.021 95.146c-0.023 0.106-0.044 0.214-0.066 0.323 0.02 0.004 0.035 0.005 0.055 0.007C124.013 95.368 124.018 95.254 124.021 95.146zM123.979 88.657c-0.844 0.576-2.154 2.697-3.553 5.114C122.204 91.617 123.733 89.645 123.979 88.657zM120.427 93.771c-0.074 0.09-0.152 0.185-0.229 0.274 0.018 0.012 0.034 0.02 0.053 0.034C120.309 93.976 120.369 93.873 120.427 93.771zM123.405 88.006c-1.015 0.119-3.16 1.385-5.522 2.875C120.46 89.801 122.726 88.768 123.405 88.006zM117.883 90.884c-0.122 0.051-0.247 0.102-0.372 0.156 0.009 0.019 0.021 0.038 0.033 0.057C117.658 91.027 117.771 90.954 117.883 90.884zM123.198 87.161c-0.951-0.365-3.441-0.238-6.227-0.016C119.755 87.383 122.244 87.521 123.198 87.161zM116.972 87.145c-0.151-0.014-0.308-0.028-0.457-0.041 -0.001 0.027-0.003 0.053-0.001 0.08C116.669 87.169 116.822 87.156 116.972 87.145zM123.407 86.318c-0.67-0.763-2.932-1.809-5.499-2.905C120.259 84.915 122.397 86.196 123.407 86.318zM117.908 83.413c-0.147-0.095-0.297-0.189-0.446-0.285 -0.013 0.026-0.026 0.053-0.041 0.078C117.585 83.276 117.75 83.344 117.908 83.413zM123.985 85.67c-0.239-0.989-1.758-2.967-3.521-5.132C121.849 82.963 123.147 85.09 123.985 85.67zM120.465 80.538c-0.095-0.163-0.188-0.329-0.281-0.494 -0.026 0.018-0.055 0.037-0.079 0.054C120.224 80.245 120.348 80.393 120.465 80.538z" fill="url(#SvgjsRadialGradient3315)" opacity="1"></path><path id="SvgjsPath3318" d="M126.255 78.622c-0.034-0.004-0.066-0.01-0.1-0.014 -0.011 0.196-0.022 0.393-0.034 0.586C126.164 79.004 126.211 78.812 126.255 78.622zM126.12 79.193c-0.627 2.724-1.114 5.17-0.892 6.162C125.724 84.467 125.95 81.984 126.12 79.193zM125.229 85.356c-0.119 0.212-0.25 0.344-0.401 0.36 -0.15 0.014-0.306-0.091-0.464-0.276 -0.006 0.243-0.06 0.421-0.188 0.505 -0.128 0.083-0.313 0.063-0.539-0.03 0.107 0.219 0.143 0.403 0.069 0.536 -0.075 0.133-0.249 0.201-0.489 0.224 0.194 0.144 0.312 0.289 0.308 0.441 -0.003 0.152-0.126 0.292-0.327 0.428 0.24 0.034 0.41 0.111 0.478 0.247 0.067 0.136 0.025 0.318-0.091 0.532 0.229-0.081 0.414-0.093 0.537-0.003 0.123 0.088 0.17 0.27 0.164 0.514 0.166-0.177 0.325-0.278 0.478-0.253 0.148 0.02 0.274 0.16 0.382 0.379 0.064-0.236 0.16-0.396 0.306-0.447 0.143-0.051 0.318 0.014 0.515 0.157 -0.051-0.237-0.041-0.423 0.063-0.536s0.29-0.136 0.532-0.102c-0.157-0.187-0.238-0.356-0.195-0.504 0.039-0.148 0.192-0.255 0.423-0.336 -0.226-0.091-0.372-0.206-0.407-0.354 -0.032-0.149 0.053-0.316 0.218-0.495 -0.243 0.023-0.427-0.009-0.524-0.125 -0.099-0.115-0.102-0.303-0.039-0.538 -0.201 0.134-0.38 0.19-0.521 0.132C125.37 85.756 125.281 85.593 125.229 85.356zM126.033 85.683c0.852-0.558 2.206-2.65 3.652-5.04C127.865 82.76 126.298 84.699 126.033 85.683zM129.685 80.641c0.126-0.145 0.255-0.292 0.38-0.44 -0.027-0.019-0.052-0.04-0.078-0.06C129.886 80.31 129.785 80.477 129.685 80.641zM126.597 86.345c1.013-0.099 3.187-1.322 5.577-2.767C129.578 84.609 127.287 85.598 126.597 86.345zM132.173 83.579c0.165-0.065 0.333-0.131 0.501-0.195 -0.014-0.029-0.029-0.056-0.04-0.083C132.481 83.392 132.328 83.487 132.173 83.579zM126.783 87.194c0.943 0.382 3.437 0.309 6.227 0.142C130.231 87.042 127.745 86.853 126.783 87.194zM133.01 87.336c0.158 0.019 0.32 0.036 0.48 0.053 0.001-0.027 0.002-0.055 0.003-0.083C133.332 87.316 133.168 87.326 133.01 87.336zM126.558 88.033c0.655 0.78 2.898 1.871 5.442 3.017C129.679 89.499 127.565 88.177 126.558 88.033zM132 91.049c0.117 0.08 0.236 0.161 0.354 0.238 0.013-0.021 0.024-0.042 0.035-0.063C132.262 91.168 132.129 91.109 132 91.049zM125.964 88.67c0.221 0.993 1.699 3.004 3.419 5.205C128.048 91.419 126.791 89.266 125.964 88.67zM129.384 93.872c0.059 0.106 0.117 0.217 0.176 0.325 0.018-0.013 0.034-0.023 0.053-0.034C129.536 94.065 129.458 93.967 129.384 93.872zM125.146 88.96c-0.267 0.982 0.107 3.447 0.608 6.195C125.711 92.361 125.601 89.87 125.146 88.96zM125.754 95.155c0.002 0.11 0.004 0.224 0.004 0.337 0.021-0.003 0.038-0.005 0.058-0.005C125.796 95.376 125.775 95.264 125.754 95.155zM124.285 88.834c-0.693 0.748-1.508 3.102-2.341 5.769C123.205 92.11 124.265 89.853 124.285 88.834zM121.944 94.603c-0.05 0.096-0.099 0.195-0.147 0.295 0.017 0.008 0.032 0.013 0.051 0.021C121.879 94.815 121.913 94.707 121.944 94.603zM123.584 88.324c-0.964 0.338-2.779 2.048-4.756 4.021C121.104 90.724 123.091 89.215 123.584 88.324zM118.828 92.345c-0.095 0.067-0.194 0.138-0.29 0.206 0.014 0.016 0.027 0.028 0.041 0.045C118.661 92.511 118.746 92.428 118.828 92.345zM123.197 87.546c-1.01-0.148-3.409 0.521-6.078 1.349C119.889 88.518 122.345 88.106 123.197 87.546zM117.119 88.897c-0.131 0.018-0.265 0.034-0.4 0.054 0.005 0.021 0.011 0.042 0.018 0.063C116.865 88.977 116.993 88.936 117.119 88.897zM123.217 86.677c-0.824-0.599-3.263-1.121-6.01-1.627C119.833 86 122.202 86.777 123.217 86.677zM117.207 85.05c-0.143-0.052-0.29-0.106-0.432-0.158 -0.008 0.026-0.016 0.051-0.021 0.077C116.907 84.995 117.06 85.022 117.207 85.05zM123.637 85.917c-0.45-0.911-2.363-2.506-4.561-4.23C120.959 83.747 122.693 85.538 123.637 85.917zM119.076 81.688c-0.118-0.13-0.236-0.26-0.355-0.391 -0.021 0.022-0.041 0.044-0.061 0.065C118.8 81.471 118.941 81.58 119.076 81.688zM124.363 85.44c0.024-1.017-0.93-3.321-2.073-5.868C122.999 82.273 123.704 84.663 124.363 85.44zM122.29 79.572c-0.049-0.182-0.096-0.366-0.144-0.55 -0.029 0.01-0.062 0.021-0.09 0.032C122.134 79.227 122.214 79.401 122.29 79.572z" fill="url(#SvgjsRadialGradient3319)" opacity="1"></path><path id="SvgjsPath3322" d="M128.334 87c0 1.842-1.492 3.333-3.333 3.333s-3.335-1.492-3.335-3.333c0-1.841 1.494-3.334 3.335-3.334C126.844 83.666 128.334 85.159 128.334 87z" fill="#2a2726" stroke-width="none" opacity="1" stroke="none"></path><path id="SvgjsPath3323" d="M128.334 87c0 1.842-1.492 3.333-3.333 3.333s-3.335-1.492-3.335-3.333c0-1.841 1.494-3.334 3.335-3.334C126.844 83.666 128.334 85.159 128.334 87z" fill="#000000" stroke-width="none" opacity="0.9"></path><path id="SvgjsPath3324" d="M120.35 90.893c0.636-0.427 1.5-0.255 1.927 0.38 0.427 0.637 0.258 1.5-0.379 1.927 -0.638 0.429-1.5 0.258-1.927-0.378C119.544 92.185 119.713 91.32 120.35 90.893L120.35 90.893z" fill="url(#SvgjsLinearGradient3325)" opacity="0.5"></path><path id="SvgjsPath3328" d="M127.635 86.536c-0.356 0.53-1.373 0.468-2.275-0.136 -0.903-0.605-1.346-1.526-0.991-2.055l0.001-0.001c0.354-0.53 1.372-0.469 2.274 0.137 0.903 0.604 1.346 1.524 0.992 2.054C127.635 86.536 127.635 86.536 127.635 86.536z" fill="url(#SvgjsLinearGradient3329)" opacity="0.5"></path><path id="SvgjsPath3332" d="M131.682 85.121c-0.806 1.237-2.884 1.31-4.641 0.166 -1.756-1.145-2.527-3.075-1.722-4.311 0.806-1.235 2.884-1.31 4.641-0.166C131.715 81.956 132.485 83.887 131.682 85.121L131.682 85.121z" fill="url(#SvgjsLinearGradient3333)" opacity="0.75"></path></g></g></g><g id="svga-group-eyesfront-right"><path id="SvgjsPath3626" d="M126 62.999c-9.94 0-18 11.193-18 25.001 0 13.808 8.06 24.999 18 24.999S144 101.808 144 88C144 74.191 135.94 62.999 126 62.999zM135.725 90.922c0 0-2.203 2.906-9.723 2.969 -3.778 0.031-10.063-0.366-12.319-2.213 0.001 0.001 0.002 0.002 0.003 0.004 -0.872-0.682-1.357-1.541-1.316-2.623 0.02-0.509 0.234-1.09 0.585-1.702 0.004 0 0.008 0 0.012 0 1.811-3.068 7.566-6.887 13.547-7.316 2.471-0.178 4.854-0.266 6.578 0.143 3.778 0.895 5.518 2.173 5.923 3.078 0.049 0.152 0.082 0.305 0.097 0.454 -0.083 1.013-0.004 1.565-0.719 3.156 0 0 0.011-0.013 0.028-0.036C137.732 88.283 136.663 89.679 135.725 90.922z" fill="#93614a" stroke-width="none" opacity="1"></path><path id="SvgjsPath3627" d="M124.045 70c-10.416-0.043-18.875 6.635-18.902 14.92 -0.023 8.284 8.398 15.033 18.813 15.08 10.418 0.043 18.875-6.635 18.902-14.919C142.881 76.796 134.461 70.047 124.045 70zM138.42 86.836c-0.688 1.447-1.757 2.843-2.695 4.086 0 0-2.203 2.906-9.723 2.969 -3.778 0.031-10.063-0.366-12.319-2.213 0.001 0.001 0.002 0.002 0.003 0.004 -0.872-0.682-1.357-1.541-1.316-2.623 0.02-0.509 0.234-1.09 0.585-1.702 0.004 0 0.008 0 0.012 0 1.811-3.068 7.566-6.887 13.547-7.316 2.471-0.178 4.854-0.266 6.578 0.143 3.778 0.895 5.518 2.173 5.923 3.078 0.049 0.152 0.082 0.305 0.097 0.454 -0.083 1.013-0.004 1.565-0.719 3.156C138.392 86.872 138.402 86.859 138.42 86.836z" fill="url(#SvgjsRadialGradient3628)" opacity="1"></path><path id="SvgjsPath3632" d="M135.725 90.922c0.938-1.243 2.008-2.639 2.695-4.086 -0.018 0.023-0.028 0.036-0.028 0.036 0.715-1.591 0.636-2.143 0.719-3.156 -0.015-0.149-0.048-0.301-0.097-0.454 -0.405-0.904-2.145-2.183-5.923-3.078 -1.724-0.409-4.107-0.321-6.578-0.143 -5.98 0.429-11.736 4.248-13.547 7.316 -0.004 0-0.008 0-0.012 0 -0.351 0.611-0.565 1.192-0.585 1.702 -0.041 1.082 0.444 1.94 1.316 2.623 -0.001-0.001-0.002-0.002-0.003-0.004 2.256 1.847 8.541 2.244 12.319 2.213C133.521 93.828 135.725 90.922 135.725 90.922z" fill="url(#SvgjsRadialGradient3633)" opacity="1"></path><path id="SvgjsPath3636" d="M111.744 84.111c6.821-5.453 10.878-7.558 19.341-7.756 -5.832-0.553-11.102 1.27-14.204 3.22C115.43 80.487 112.744 83.237 111.744 84.111z" fill="#652e15" stroke-width="none" opacity="1"></path><path id="SvgjsPath3637" d="M135.725 90.86c-0.332 0.966-1.887 2.297-2.73 2.721 -1.74 0.873-5.785 0.985-7.732 0.953 -2.985-0.049-8.257-0.381-11.579-2.931 2.256 1.819 8.541 2.21 12.319 2.179C133.521 93.721 135.725 90.86 135.725 90.86zM130.529 77.594c-7.113-0.373-15.748 4.565-18.236 9 -0.076 0.137-0.127 0.512-0.021 0.626 0.106 0.114 0.424 0.118 0.693 0.13 1.811-3.021 7.566-6.781 13.547-7.204 2.471-0.174 4.854-0.261 6.578 0.141 4.466 1.041 6.091 2.613 6.02 3.477 -0.083 0.997-0.004 1.541-0.719 3.107 0 0 1.749-2.54 3.097-4.895 0.661-1.156 0.917-1.355 2.362-2.363 0 0-1.365 0.124-4.002 0.024C138.008 79.568 135.476 77.854 130.529 77.594z" fill="#000000" stroke-width="none" opacity="1"></path></g></g><g id="svga-group-facehighlight-single" ><path id="SvgjsPath2753" d="M140.204 113.007c0.035 22.275-17.995 40.365-40.273 40.396 -22.274 0.036-40.361-17.993-40.396-40.272C59.501 90.857 77.53 72.77 99.808 72.735 122.083 72.701 140.171 90.73 140.204 113.007z" fill="url(#SvgjsRadialGradient2754)" opacity="1"></path><path id="SvgjsPath2757" d="M135,55.999c0,19.329-15.671,35-35,35c-19.329,0-35-15.671-35-35s15.671-35,35-35C119.329,20.999,135,36.67,135,55.999z" fill="url(#SvgjsRadialGradient2758)" opacity="1"></path></g><g id="svga-group-eyebrows-left" ><path id="SvgjsPath3348" d="M54.351 74.996c9.743-15.115 36.491 5.148 38.018-1.191 0.299-1.271-0.407-2.015-1.564-2.492C77.184 65.807 59.156 61.18 54.351 74.996z" fill="#2a232b" stroke-width="none" opacity="1"></path></g><g id="svga-group-eyebrows-right" ><path id="SvgjsPath3349" d="M145.649 74.996c-9.743-15.115-36.491 5.148-38.018-1.191 -0.299-1.271 0.407-2.015 1.564-2.492C122.816 65.807 140.844 61.18 145.649 74.996z" fill="#2a232b" stroke-width="none" opacity="1"></path></g><g id="svga-group-nose-single" ><path id="SvgjsPath3506" d="M92.281 116.235c-0.745 2.063 5.028 4.289 7.218 4.426 2.374 0.147 9.024-2.899 7.896-4.991 -1.185-2.197-5.63-0.286-7.547-0.286C97.94 115.384 93.276 113.479 92.281 116.235z" fill="#844e35" stroke-width="none" opacity="1"></path><path id="SvgjsPath3507" d="M102.207 117.221c-0.243-0.522 1.194-1.333 1.748-1.493 0.777-0.226 2.505 0.238 2.438 0.831 -0.06 0.521-1.603-0.169-2.105-0.022C103.767 116.687 102.435 117.712 102.207 117.221zM95.214 116.742c0.706 0 1.753 0.457 1.945 0.057 0.229-0.479-1.56-1.065-2.086-1 -0.434 0.052-1.991 0.958-1.777 1.338C93.496 117.49 94.284 116.742 95.214 116.742z" fill="#652e15" stroke-width="none" opacity="1"></path><path id="SvgjsPath3508" d="M99.857 113.479c0.669 0 1.807-0.637 1.978-1.9 0.754-5.575-0.521-20.246-1.978-20.246 -1.365 0-2.508 15.024-2.155 20.246C97.789 112.86 99.099 113.479 99.857 113.479" fill="#b28e7d" stroke-width="none" opacity="0.2"></path></g><g id="svga-group-hair-front" ><path id="SvgjsPath3090" d="M60.35 193.688c1.158-14.492 0.475-21.283-0.77-33.608 -2.595-25.694-3.31-42.128-4.043-68.959 -0.316-11.197-0.641-22.776 3.313-33.606 3.554-10.115 11.301-18.694 20.722-22.95 7.624-3.447 14.646-3.392 22.43-3.392 9.351 0 15.884 0.73 21.614 4.47 16.191 10.58 17.635 25.628 19.629 46.457 2.178 22.685 1.116 25.168 1.134 46.728 0.03 49.463-3.013 57.144 2.977 99.22 6.649 0.343 26.664-167.79 4.624-195.021 -12.594-15.575-87.972-7.296-98.007-0.403 -16.856 11.572 1.878 194.396 1.878 194.396C55.895 225.376 60.088 196.829 60.35 193.688z" fill="#2a232b" stroke-width="none" opacity="0.1"></path><path id="SvgjsPath3091" d="M58.48 202.358c1.212-15.154 0.495-22.254-0.806-35.143 -2.714-26.865-3.462-44.05-4.228-72.104 -0.33-11.708-0.671-23.814 3.464-35.139 3.719-10.576 11.822-19.547 21.678-23.997 7.975-3.604 15.32-3.547 23.465-3.547 9.779 0 16.612 0.765 22.609 4.675 16.939 11.062 18.443 26.796 20.532 48.575 2.279 23.72 1.17 26.316 1.183 48.859 0.037 51.718-3.554 59.332 2.714 103.329 6.955 0.357 27.631 1.225 34.401 0.728 5.637-57.613-7.946-77.721-10.325-127.722 -1.139-24.668-2.271-67.687-25.324-96.161C134.665-1.573 119.08-6.259 101.801-2.154 88.552-4.505 75.76-1.338 65.263 5.871 47.63 17.97 32.909 43.054 31.021 64.217c-2.411 27.16 2.334 39.43-2.501 66.618 -5.761 32.415-14.864 57.097-10.235 104.528 5.256 0.388 35.999 1.845 35.999 1.845C54.328 235.491 58.206 205.643 58.48 202.358z" fill="#2a232b" stroke-width="none" opacity="1"></path><path id="SvgjsPath3092" d="M156.514 238.203c-3.052-0.125-5.674-0.247-7.423-0.337 -6.268-43.997-2.677-51.611-2.714-103.329 -0.013-22.543 1.097-25.14-1.183-48.859 -2.089-21.778-3.593-37.513-20.532-48.575 -10.166-6.63-35.575-5.874-46.074-1.127 -9.855 4.45-17.959 13.421-21.678 23.997 -4.136 11.325-3.794 23.431-3.464 35.139 0.766 28.055 1.514 45.239 4.228 72.104 1.301 12.889 2.019 19.988 0.806 35.143 -0.274 3.284-4.152 33.133-4.197 34.85 0 0-3.401-0.161-8.125-0.391 0.354-11.398 5.847-22.797 6.771-34.195 1.944-48-11.669-94-0.972-143 2.916-12 7.778-22 18.475-28 9.207-5.261 26.281-6.583 32.057-2.817 0.096-0.611 0.196-1.222 0.289-1.869 1.514-8.9-1.219-12.378 1.395-18.231 -2.012 5.547 0.221 9.073-0.122 15.242 -0.069 1.079-0.416 2.695-0.861 4.65 6.292-2.681 20.152-1.896 26.556 3.025 33.178 25.495 17.501 112 22.364 169C152.767 213.505 154.927 225.928 156.514 238.203zM53.269 39.909C60.691 29.864 72.2 20.585 84.275 18.63c2.96-0.479 5.707-0.608 5.531-0.598C77.578 18.446 67.012 22.58 57.789 32.8 46.872 44.509 47.371 54.632 47.321 57.023 47.732 50.831 48.508 47.439 53.269 39.909zM109.749 21.904c1.317-0.368 4.279-1.342 8.201-1.098 15.563 0.723 34.484 18.312 36.685 42.554 0.576 5.964 1.216 24.332 0.4 10.625 -0.497-8.323-1.369-12.445-2.197-16.1 -4.167-18.454-23.161-40.319-41.44-36.366C110.345 21.765 109.749 21.904 109.749 21.904zM42.198 86.344c0.791 27.147 2.753 45.85 2.237 58.753 -1.471 16.183-3.123 29.451-3.123 29.451 -0.03 0.413 0.08-1.676 0.305-5.11C44.104 134.158 41.714 129.297 42.198 86.344zM156.817 88.121c0.417 7.484 2.223 39.41 2.494 46.176 0.227 5.292 0.263 40.677 0.381 42.338C159.72 177.225 157.602 148.345 156.817 88.121zM164.506 97.312c0.925 14.561 6.923 72.884 14.438 100.406 0.145 0.453-0.622-1.821-1.851-5.594C167.657 161.228 165.585 129.036 164.506 97.312zM38.992 117.395c-1.623 6.133-0.24 9.802-0.187 15.916 -0.286 14.263-5.243 30.714-7.033 38.957 -2.097 8.726-2.847 32.982-2.842 33.984 -0.033 1-0.85-26.039 3.125-42.239 10.377-40.344 3.92-29.618 6.383-44.87C38.791 118.026 38.992 117.395 38.992 117.395zM106.508 6.016c4.76-1.002 3.222-0.752 7.014-1.173 16.098-1.667 26.966 10.983 29.381 12.878 0.138 0.13-0.571-0.515-1.729-1.582C126.713 4.276 117.499 4.108 106.508 6.016zM57.182 29.987c6.694-6.878 14.555-16.267 30.61-16.92 6.169-0.293 9.09 1.436 10.062 1.682 0 0-8.626-4.578-25.444 3.183C66.992 20.292 60.918 26.445 57.182 29.987z" fill="#1b141c" stroke-width="none" opacity="1"></path><path id="SvgjsPath3093" d="M184.627 202.31c-11.808-41.571-15.057-85.129-18.904-128.688 -3.153-28.372-15.003-61.281-41.116-72.753 -2.839-1.247-27.424-2.821-39.59 0.753 -41.812 10-53.492 58.916-50.563 100 2.212 31.021-9.32 67.609-17.325 101.74 0.902-28.354 7.081-48.278 11.391-72.527 4.835-27.188 0.09-39.458 2.501-66.618C32.909 43.054 47.63 17.97 65.263 5.871 75.76-1.338 88.552-4.505 101.801-2.154c12.718-3.021 24.514-1.269 35.107 6.351 0.023 0.004 0.048 0.011 0.072 0.015 3.741 2.716 7.431 6.261 10.862 10.499 23.054 28.474 24.186 71.492 25.324 96.161C174.967 148.733 183.188 169.466 184.627 202.31zM55.419 27.308c-5.997 7.544-2.415 2.772 3.69-3.506C76.943 7.338 88.264 6.365 98.295 8.659 81.472 4.024 66.606 13.774 55.419 27.308zM111.979 11.433c11.421-3.929 25.295-1.496 39.866 21.474 10.844 18.168 10.938 40.817 11.57 43.92 0.059 0.443-0.307-1.789-0.794-5.48 -1.308-8.44-3.563-29.778-22.548-51.36C135.036 14.173 124.136 7.854 111.979 11.433zM157.705 66.21c3.031 29.726 4.887 72.826 4.887 72.826 0.056 0.683-0.711-6.873-1.462-15.11C158.358 93.735 159.653 97.339 157.705 66.21zM154.559 136.402c0.332 21.587 0.059 17.159 2.332 48.097 1.977 16.713 2.607 19.68-0.461 1.053C153.621 167.693 154.113 155.258 154.559 136.402zM164.298 144.114c3.975 29.918 3.572 29.703 4.521 45.704 1.172 16.188 1.584 18.725-0.499 0.988C167.087 180.877 166.418 167.275 164.298 144.114zM48.856 38.604C42.754 50.786 41.06 60.74 39.84 74.385c-1.997 19.679-0.178 21.159-1.365 34.119 -0.013 0.167 0.007-0.172 0.046-0.899C38.99 91.267 34.574 64.494 48.856 38.604zM60.097 37.08c-6.143 5.974-9.404 17.112-11.477 25.781 -4.44 19.145-2.167 83.919-3.542 36.666 -0.629-17.744-1.211-32.394 7.84-52.141C54.873 43.101 56.972 39.759 60.097 37.08zM46.554 137.29c0.157 11.389 1.336 12.657 2.418 25.876 1.28 12.79-2.299 33.213-2.422 35.392 -0.194 1.541 2.623-23.021 1.202-40.579C46.261 141.57 46.374 144.686 46.554 137.29zM39.933 152.671c-2.873 11.796-1.906 13.18-5.192 60.408C34.667 214.079 34.458 171.888 39.933 152.671zM66.763 29.981c0.972-0.551 14.882-11.058 28.83-6.116 1.283 0.413 2.125 0.836 2.276 0.867 0.972 0.387-5.218-2.399-11.905-1.512C75.772 24.125 68.383 29.131 66.763 29.981zM106.568 19.154c2.092-0.977 4.102-2.125 9.005-2.732 13.841-1.694 22.483 9.902 23.455 10.708 0.943 1.03-4.335-5.62-12.846-8.638 -1.473-0.502-0.018-0.072-2.558-0.81 -0.412-0.144-2.072-0.543-3.782-0.742C114.035 16.403 111.294 17.185 106.568 19.154z" fill="#3a353a" stroke-width="none" opacity="1"></path><path id="SvgjsPath3094" d="M173.267 110.867c-1.178-24.84-2.121-67.53-25.351-96.22 -14.129-17.46-30.241-20.7-46.099-16.9 -12.067-2.14-25.018 0.08-36.609 8.04 -17.327 11.89-32.358 36.84-34.284 58.42 -2.411 27.17 2.334 39.43-2.498 66.61 -6.068 34.13-14.509 55.09-10.288 104.04 0.02 0.2 0.039 0.4 0.058 0.6 0.097 0.011 0.185 0.011 0.283 0.021 10.501 0.59 22.606 1.229 35.567 1.82 0.078 0 0.156 0 0.234 0.01 30.221 1.37 65.079 2.5 95.039 2.35 0.065-0.01 0.136-0.01 0.201 0 12.37-0.08 23.902-0.37 33.927-0.96 0.047 0 0.097-0.01 0.137-0.01 0.029-0.3 0.056-0.6 0.085-0.89C189.25 181.737 175.628 160.558 173.267 110.867zM54.416 236.268c1.536-12.28 4.005-32.04 4.161-33.9 2.44-30.52-3.004-29.06-4.958-104.48 -0.33-12.77-1.069-25.69 3.383-37.88 3.695-10.51 11.659-19.44 21.626-23.94 4.336-1.96 8.955-2.93 13.65-3.39 15.722-0.35 24.649-0.5 32.33 4.51 16.568 10.82 18.312 25.76 20.487 48.5 2.284 23.77 1.167 26.22 1.187 48.85 0.021 28.521-0.205 2.311-0.933 56.49 -0.089 6.42 0.037 12.82 0.517 19.23 0.651 8.819 2.155 20.34 3.256 28.05C119.523 238.268 84.705 237.348 54.416 236.268zM94.427 32.518c1.799-0.13 3.607-0.19 5.416-0.2C98.152 32.377 96.354 32.447 94.427 32.518zM183.513 237.808c-9.936 0.359-21.563 0.51-34.159 0.5 -0.688-5.96-1.488-12.95-1.506-13.23 -0.863-8.55-1.42-17.149-1.4-25.75 0-1 4.094-80.43 1.344-106.32 -2.781-26.17-4.706-49.5-26.81-58.53 -4.655-1.91-9.715-2.36-17.064-2.26 -0.03 0-0.057 0-0.085 0 -5.331-0.16-10.474-0.18-15.472 0.55 -0.01 0-0.02 0-0.038 0 -5.456 0.8-10.726 2.47-15.839 5.8 -23.833 15.48-21.033 45.2-20.81 63.09 0.817 66.53 8.459 68.5 5.621 104.48 -0.03 0.34-1.936 18.43-3.141 30.12 -13-0.45-25.164-0.931-35.705-1.391 -0.116-1.93-0.184-3-0.184-3.08 -2.907-57.51 10.209-76.38 14.1-110.51 2.965-25.96-3.043-46.38 2.703-68.53 8.021-30.91 32.962-59.16 65.556-54.7 1.04 0.14 2.091 0.32 3.139 0.53 0.36-0.08 0.73-0.14 1.092-0.2 11.869-2.08 23.353-0.89 33.748 8.25 30.356 26.68 30.668 78.31 31.629 96.69 3.045 58.33 16.354 73.521 13.739 128.38C183.97 231.798 183.758 234.688 183.513 237.808z" fill="#000000" stroke-width="none" opacity="1"></path></g><g id="svga-group-glasses-single" ><path id="SvgjsPath3520" d="M100,18.13L100,18.13L100,18.13L100,18.13z" fill="#26120b" stroke-width="none" opacity="1"></path></g></g></g><rect id="SvgjsRect1033" width="200" height="15" x="0" y="185" fill="#ecf0f1" opacity="0.5" style="display:none;"></rect><text id="SvgjsText1034" font-family="&quot;Roboto&quot;, &quot;Helvetica Neue&quot;, Helvetica, Arial, sans-serif" style="font-size:0.84em;font-family:&quot;Roboto&quot;, &quot;Helvetica Neue&quot;, Helvetica, Arial, sans-serif;text-anchor:middle;font-weight:400;display:none;" font-size="0.84em" text-anchor="middle" font-weight="400" fill="#000000" x="100" y="185"><tspan id="SvgjsTspan1035" dy="1.2em" x="100" style="font-size:0.84em;font-family:&quot;Roboto&quot;, &quot;Helvetica Neue&quot;, Helvetica, Arial, sans-serif;text-anchor:middle;font-weight:400;">Created on AvatarMaker.com</tspan></text></g><defs id="SvgjsDefs1001"><radialGradient id="SvgjsRadialGradient2754" cx="100" cy="113" r="40" gradientUnits="userSpaceOnUse" class="svga-on-canvas-facehighlight-gradient-single-0"><stop id="SvgjsStop2755" stop-opacity="0.5" stop-color="#a27662" offset="0" ></stop><stop id="SvgjsStop2756" stop-opacity="0" stop-color="#93614a" offset="0.9" ></stop></radialGradient><radialGradient id="SvgjsRadialGradient2758" cx="100" cy="57" r="36" gradientUnits="userSpaceOnUse" class="svga-on-canvas-facehighlight-gradient-single-1"><stop id="SvgjsStop2759" stop-opacity="0.5" stop-color="#a27662" offset="0" ></stop><stop id="SvgjsStop2760" stop-opacity="0" stop-color="#93614a" offset="0.9" ></stop></radialGradient><radialGradient id="SvgjsRadialGradient3292" cx="-558.588" cy="-490.918" r="84.646" gradientTransform="matrix(0.096 -0.0248 0.0245 0.0961 140.5478 120.3577)" gradientUnits="userSpaceOnUse" class="svga-on-canvas-eyesiris-gradient-left-1"><stop id="SvgjsStop3293" stop-opacity="0.8" stop-color="#ffffff" offset="0" ></stop><stop id="SvgjsStop3294" stop-opacity="0" stop-color="#ffffff" offset="1" ></stop></radialGradient><radialGradient id="SvgjsRadialGradient3296" cx="-565.337" cy="-492.691" r="84.644" gradientTransform="matrix(0.0991 8.856325e-004 -0.0011 0.0991 130.3774 136.3533)" gradientUnits="userSpaceOnUse" class="svga-on-canvas-eyesiris-gradient-left-2"><stop id="SvgjsStop3297" stop-opacity="0.8" stop-color="#ffffff" offset="0" ></stop><stop id="SvgjsStop3298" stop-opacity="0" stop-color="#ffffff" offset="1" ></stop></radialGradient><linearGradient id="SvgjsLinearGradient3302" x1="122.283" y1="93.047" x2="123.61" y2="91.466" gradientTransform="matrix(1 0 0 1 -52 0)" gradientUnits="userSpaceOnUse" class="svga-on-canvas-eyesiris-gradient-left-5"><stop id="SvgjsStop3303" stop-opacity="1" stop-color="#ffffff" offset="0" ></stop><stop id="SvgjsStop3304" stop-opacity="0" stop-color="#ffffff" offset="1" ></stop></linearGradient><linearGradient id="SvgjsLinearGradient3306" x1="127" y1="85" x2="125" y2="87" gradientTransform="matrix(1 0 0 1 -50 0)" gradientUnits="userSpaceOnUse" class="svga-on-canvas-eyesiris-gradient-left-6"><stop id="SvgjsStop3307" stop-opacity="1" stop-color="#ffffff" offset="0" ></stop><stop id="SvgjsStop3308" stop-opacity="0" stop-color="#ffffff" offset="1" ></stop></linearGradient><linearGradient id="SvgjsLinearGradient3310" x1="130" y1="81" x2="126" y2="85" gradientTransform="matrix(1 0 0 1 -50 0)" gradientUnits="userSpaceOnUse" class="svga-on-canvas-eyesiris-gradient-left-7"><stop id="SvgjsStop3311" stop-opacity="1" stop-color="#ffffff" offset="0" ></stop><stop id="SvgjsStop3312" stop-opacity="0" stop-color="#ffffff" offset="1" ></stop></linearGradient><radialGradient id="SvgjsRadialGradient3315" cx="-578.76" cy="-490.73" r="84.646" gradientTransform="matrix(0.096 -0.0248 0.0245 0.0961 192.4794 119.8404)" gradientUnits="userSpaceOnUse" class="svga-on-canvas-eyesiris-gradient-right-1"><stop id="SvgjsStop3316" stop-opacity="0.8" stop-color="#ffffff" offset="0" ></stop><stop id="SvgjsStop3317" stop-opacity="0" stop-color="#ffffff" offset="1" ></stop></radialGradient><radialGradient id="SvgjsRadialGradient3319" cx="-584.778" cy="-487.329" r="84.644" gradientTransform="matrix(0.0991 8.856325e-004 -0.0011 0.0991 182.3104 135.839)" gradientUnits="userSpaceOnUse" class="svga-on-canvas-eyesiris-gradient-right-2"><stop id="SvgjsStop3320" stop-opacity="0.8" stop-color="#ffffff" offset="0" ></stop><stop id="SvgjsStop3321" stop-opacity="0" stop-color="#ffffff" offset="1" ></stop></radialGradient><linearGradient id="SvgjsLinearGradient3325" x1="120.284" y1="93.047" x2="121.611" y2="91.467" gradientUnits="userSpaceOnUse" class="svga-on-canvas-eyesiris-gradient-right-5"><stop id="SvgjsStop3326" stop-opacity="1" stop-color="#ffffff" offset="0" ></stop><stop id="SvgjsStop3327" stop-opacity="0" stop-color="#ffffff" offset="1" ></stop></linearGradient><linearGradient id="SvgjsLinearGradient3329" x1="127" y1="85" x2="125" y2="87" gradientUnits="userSpaceOnUse" class="svga-on-canvas-eyesiris-gradient-right-6"><stop id="SvgjsStop3330" stop-opacity="1" stop-color="#ffffff" offset="0" ></stop><stop id="SvgjsStop3331" stop-opacity="0" stop-color="#ffffff" offset="1" ></stop></linearGradient><linearGradient id="SvgjsLinearGradient3333" x1="130" y1="81" x2="126" y2="85" gradientUnits="userSpaceOnUse" class="svga-on-canvas-eyesiris-gradient-right-7"><stop id="SvgjsStop3334" stop-opacity="1" stop-color="#ffffff" offset="0" ></stop><stop id="SvgjsStop3335" stop-opacity="0" stop-color="#ffffff" offset="1" ></stop></linearGradient><linearGradient id="SvgjsLinearGradient3372" x1="100" y1="70" x2="100" y2="108" gradientUnits="userSpaceOnUse" class="svga-on-canvas-glasses-gradient-single-0"><stop id="SvgjsStop3373" stop-opacity="1" stop-color="#0d170a" offset="0" ></stop><stop id="SvgjsStop3374" stop-opacity="0.5" stop-color="#0d170a" offset="1" ></stop></linearGradient><linearGradient id="SvgjsLinearGradient3498" x1="100" y1="141" x2="100" y2="137" gradientUnits="userSpaceOnUse" class="svga-on-canvas-mouth-gradient-single-0"><stop id="SvgjsStop3499" stop-opacity="1" stop-color="#8b573f" offset="0.1" ></stop><stop id="SvgjsStop3500" stop-opacity="1" stop-color="#844e35" offset="1" ></stop></linearGradient><linearGradient id="SvgjsLinearGradient3517" x1="99.98" y1="171.27" x2="99.98" y2="136.351" gradientUnits="userSpaceOnUse" class="svga-on-canvas-chinshadow-gradient-single-0"><stop id="SvgjsStop3518" stop-opacity="0.8" stop-color="#844e35" offset="0" ></stop><stop id="SvgjsStop3519" stop-opacity="1" stop-color="#652e15" offset="0.7" ></stop></linearGradient><radialGradient id="SvgjsRadialGradient3581" cx="125.675" cy="87.605" r="15.179" gradientTransform="matrix(-0.9148 0.0479 0.0523 0.9986 184.4314 -6.6017)" gradientUnits="userSpaceOnUse" class="svga-on-canvas-eyesback-gradient-left-0"><stop id="SvgjsStop3582" stop-opacity="1" stop-color="#ffffff" offset="0" ></stop><stop id="SvgjsStop3583" stop-opacity="1" stop-color="#fdfefe" offset="0.544" ></stop><stop id="SvgjsStop3584" stop-opacity="1" stop-color="#f6f8f9" offset="0.74" ></stop><stop id="SvgjsStop3585" stop-opacity="1" stop-color="#eaeff2" offset="0.879" ></stop><stop id="SvgjsStop3586" stop-opacity="1" stop-color="#d9e3e8" offset="0.992" ></stop><stop id="SvgjsStop3587" stop-opacity="1" stop-color="#d8e2e7" offset="1" ></stop></radialGradient><radialGradient id="SvgjsRadialGradient3589" cx="125.674" cy="87.605" r="15.179" gradientTransform="matrix(0.9148 0.0479 -0.0523 0.9986 15.5691 -6.6017)" gradientUnits="userSpaceOnUse" class="svga-on-canvas-eyesback-gradient-right-0"><stop id="SvgjsStop3590" stop-opacity="1" stop-color="#ffffff" offset="0" ></stop><stop id="SvgjsStop3591" stop-opacity="1" stop-color="#fdfefe" offset="0.544" ></stop><stop id="SvgjsStop3592" stop-opacity="1" stop-color="#f6f8f9" offset="0.74" ></stop><stop id="SvgjsStop3593" stop-opacity="1" stop-color="#eaeff2" offset="0.879" ></stop><stop id="SvgjsStop3594" stop-opacity="1" stop-color="#d9e3e8" offset="0.992" ></stop><stop id="SvgjsStop3595" stop-opacity="1" stop-color="#d8e2e7" offset="1" ></stop></radialGradient><radialGradient id="SvgjsRadialGradient3597" cx="125.675" cy="87.605" r="15.179" gradientTransform="matrix(-0.9148 0.0479 0.0523 0.9986 184.4314 -6.6017)" gradientUnits="userSpaceOnUse" class="svga-on-canvas-eyesfront-gradient-left-0"><stop id="SvgjsStop3598" stop-opacity="1" stop-color="#ffffff" offset="0" ></stop><stop id="SvgjsStop3599" stop-opacity="1" stop-color="#fdfefe" offset="0.544" ></stop><stop id="SvgjsStop3600" stop-opacity="1" stop-color="#f6f8f9" offset="0.74" ></stop><stop id="SvgjsStop3601" stop-opacity="1" stop-color="#eaeff2" offset="0.879" ></stop><stop id="SvgjsStop3602" stop-opacity="1" stop-color="#d9e3e8" offset="0.992" ></stop><stop id="SvgjsStop3603" stop-opacity="1" stop-color="#d8e2e7" offset="1" ></stop></radialGradient><radialGradient id="SvgjsRadialGradient3607" cx="123.905" cy="84.411" fx="137.93" fy="82.292" r="18.705" gradientTransform="matrix(0.9998 0.0208 0.0166 -0.7998 -49.1889 149.3472)" gradientUnits="userSpaceOnUse" class="svga-on-canvas-eyesfront-gradient-left-3"><stop id="SvgjsStop3608" stop-opacity="1" stop-color="#844e35" offset="0" ></stop><stop id="SvgjsStop3609" stop-opacity="0.3" stop-color="#844e35" offset="0.7" ></stop><stop id="SvgjsStop3610" stop-opacity="0" stop-color="#93614a" offset="1" ></stop></radialGradient><radialGradient id="SvgjsRadialGradient3612" cx="69.404" cy="106.952" r="29.508" gradientTransform="matrix(1.0322 -0.0541 0.0541 1.0322 -5.8927 5.4187)" gradientUnits="userSpaceOnUse" class="svga-on-canvas-eyesfront-gradient-left-4"><stop id="SvgjsStop3613" stop-opacity="0" stop-color="#000000" offset="0.95" ></stop><stop id="SvgjsStop3614" stop-opacity="0.3" stop-color="#000000" offset="1" ></stop></radialGradient><radialGradient id="SvgjsRadialGradient3618" cx="125.674" cy="87.605" r="15.179" gradientTransform="matrix(0.9148 0.0479 -0.0523 0.9986 15.5691 -6.6017)" gradientUnits="userSpaceOnUse" class="svga-on-canvas-eyesfront-gradient-right-0"><stop id="SvgjsStop3619" stop-opacity="1" stop-color="#ffffff" offset="0" ></stop><stop id="SvgjsStop3620" stop-opacity="1" stop-color="#fdfefe" offset="0.544" ></stop><stop id="SvgjsStop3621" stop-opacity="1" stop-color="#f6f8f9" offset="0.74" ></stop><stop id="SvgjsStop3622" stop-opacity="1" stop-color="#eaeff2" offset="0.879" ></stop><stop id="SvgjsStop3623" stop-opacity="1" stop-color="#d9e3e8" offset="0.992" ></stop><stop id="SvgjsStop3624" stop-opacity="1" stop-color="#d8e2e7" offset="1" ></stop></radialGradient><radialGradient id="SvgjsRadialGradient3628" cx="123.905" cy="84.411" fx="137.93" fy="82.292" r="18.705" gradientTransform="matrix(-0.9998 0.0208 -0.0166 -0.7998 249.1889 149.3472)" gradientUnits="userSpaceOnUse" class="svga-on-canvas-eyesfront-gradient-right-3"><stop id="SvgjsStop3629" stop-opacity="1" stop-color="#844e35" offset="0" ></stop><stop id="SvgjsStop3630" stop-opacity="0.3" stop-color="#844e35" offset="0.7" ></stop><stop id="SvgjsStop3631" stop-opacity="0" stop-color="#93614a" offset="1" ></stop></radialGradient><radialGradient id="SvgjsRadialGradient3633" cx="69.404" cy="106.952" r="29.508" gradientTransform="matrix(-1.0322 -0.0541 -0.0541 1.0322 205.8927 5.4187)" gradientUnits="userSpaceOnUse" class="svga-on-canvas-eyesfront-gradient-right-4"><stop id="SvgjsStop3634" stop-opacity="0" stop-color="#000000" offset="0.95" ></stop><stop id="SvgjsStop3635" stop-opacity="0.3" stop-color="#000000" offset="1" ></stop></radialGradient></defs></svg>